<?xml version="1.0" encoding="iso-8859-1"?>
<!-- Uploaded to: SVG Repo, www.svgrepo.com, Generator: SVG Repo Mixer Tools -->
<svg version="1.1" id="Layer_1" xmlns="http://www.w3.org/2000/svg" xmlns:xlink="http://www.w3.org/1999/xlink" 
	 viewBox="0 0 511.999 511.999" xml:space="preserve">
<path style="fill:#81CCB5;" d="M358.069,466.686H153.931c-40.184,0-78.489-17.008-105.441-46.814l0,0h415.019l0,0
	C436.56,449.678,398.253,466.686,358.069,466.686z"/>
<rect x="139.19" y="149.042" style="fill:#C97767;" width="303.564" height="85.365"/>
<rect x="139.19" y="333.292" style="fill:#FFB085;" width="303.564" height="85.365"/>
<rect x="139.19" y="234.195" style="fill:#F1414F;" width="303.564" height="99.522"/>
<polygon style="fill:#FFCAAB;" points="69.247,149.043 69.247,234.199 69.247,234.413 69.247,333.297 69.247,333.724 
	69.247,418.665 138.174,418.665 138.174,333.724 138.174,333.297 138.174,234.413 138.174,234.199 138.174,149.043 "/>
<path d="M335.929,298.017c-0.92,0-1.856-0.099-2.761-0.283c-0.905-0.184-1.798-0.453-2.647-0.807
	c-0.862-0.354-1.683-0.793-2.448-1.302c-0.78-0.51-1.502-1.104-2.153-1.755c-0.651-0.651-1.246-1.373-1.77-2.152
	c-0.508-0.764-0.934-1.6-1.288-2.449s-0.636-1.741-0.806-2.647c-0.184-0.92-0.283-1.84-0.283-2.761c0-0.934,0.099-1.855,0.283-2.775
	c0.17-0.906,0.452-1.784,0.806-2.647c0.354-0.849,0.78-1.671,1.288-2.435c0.524-0.779,1.118-1.501,1.77-2.166
	c0.651-0.651,1.373-1.232,2.153-1.755c0.764-0.51,1.586-0.949,2.448-1.302c0.851-0.354,1.741-0.623,2.647-0.807
	c1.826-0.368,3.695-0.368,5.521,0c0.906,0.184,1.798,0.453,2.647,0.807c0.862,0.354,1.683,0.793,2.448,1.302
	c0.779,0.524,1.501,1.104,2.153,1.755c0.651,0.665,1.246,1.387,1.754,2.166c0.51,0.764,0.949,1.586,1.302,2.435
	c0.354,0.864,0.637,1.741,0.807,2.647c0.184,0.92,0.283,1.84,0.283,2.775c0,3.723-1.515,7.376-4.148,10.009
	C343.305,296.502,339.652,298.017,335.929,298.017z"/>
<circle style="fill:#F1414F;" cx="255.997" cy="95.572" r="50.257"/>
<path d="M497.843,405.716H456.91v-71.991v-0.429v-98.884v-0.214v-85.154c0-7.819-6.339-14.157-14.157-14.157H306.969
	c8.418-10.887,13.445-24.522,13.445-39.318c0-35.518-28.895-64.413-64.413-64.413s-64.413,28.895-64.413,64.413
	c0,14.795,5.027,28.431,13.445,39.318H69.247c-7.817,0-14.157,6.338-14.157,14.157v256.672H14.157
	C6.339,405.716,0,412.054,0,419.873c0,7.819,6.339,14.157,14.157,14.157h28.244c29.289,29.821,69.569,46.814,111.529,46.814h204.139
	c41.959,0,82.24-16.992,111.529-46.814h28.244c7.817,0,14.157-6.338,14.157-14.157C511.999,412.054,505.662,405.716,497.843,405.716
	z M256,59.469c19.906,0,36.1,16.194,36.1,36.1s-16.194,36.1-36.1,36.1s-36.1-16.194-36.1-36.1S236.094,59.469,256,59.469z
	 M153.341,347.881h275.256v56.627H153.341V347.881z M428.597,319.14H153.341v-21.128h140.118c7.817,0,14.157-6.338,14.157-14.157
	s-6.339-14.157-14.157-14.157H153.341v-21.128h275.256V319.14z M428.597,163.2v56.841H153.341V163.2H428.597L428.597,163.2z
	 M83.403,163.2h40.614v241.308H83.403V163.2z M358.07,452.529H153.93c-23.546,0-46.45-6.531-66.252-18.5h336.644
	C404.519,445.999,381.615,452.529,358.07,452.529z"/>
</svg>